<svg xmlns="http://www.w3.org/2000/svg" version="1.1" xmlns:xlink="http://www.w3.org/1999/xlink" xmlns:svgjs="http://svgjs.dev/svgjs" width="308.7612359841165" height="304.915625" viewBox="0 0 1000 1117"><g transform="matrix(1,0,0,1,0.5332887897370711,0.4530618114632716)"><svg viewBox="0 0 221 247" data-background-color="#282634" preserveAspectRatio="xMidYMid meet" height="1117" width="1000" xmlns="http://www.w3.org/2000/svg" xmlns:xlink="http://www.w3.org/1999/xlink"><g id="tight-bounds" transform="matrix(1,0,0,1,-0.117724400347754,-0.09997365579206985)"><svg viewBox="0 0 221.2355812228797 247.2" height="247.2" width="221.2355812228797"><g><svg viewBox="0 0 221.2355812228797 247.2" height="247.2" width="221.2355812228797"><g><svg viewBox="0 0 221.2355812228797 247.2" height="247.2" width="221.2355812228797"><g><svg viewBox="0 0 221.2355812228797 247.2" height="247.2" width="221.2355812228797"><g><svg viewBox="0 0 221.2355812228797 247.2" height="247.2" width="221.2355812228797"><path d="M220.718 53.02C219.678 27.36 216.713 20.227 216.713 20.227 207.613-6.202 196.255-0.506 186.052 3.292 168.038 3.446 150.096 9.091 132.124 12.119 94.4 12.581 56.354 4.986 18.818 23.717 15.292 29.464-3.658 24.846 0.627 56.304 1.75 69.39 5.848 83.913 5.724 95.922 6.285 98.026 7.065 93.202 7.398 96.23 8.563 104.39 10.466 100.541 12.026 105.365 9.853 118.246 11.413 128.971 12.9 140.21 10.279 143.135 6.92 141.749 5.412 151.449 5.255 158.479 4.413 157.145 3.487 156.837 2.811 156.632 1.449 157.402 1.678 159.608 2.458 167.152-0.891 171.514 1.21 178.904-0.236 186.91 2.208 193.838 1.875 202.511 1.834 204.255 2.062 205.744 2.426 206.154 4.039 208.361 1.688 212.672 1.938 217.342 18.475 249.262 36.416 227.195 53.359 241.872 57.759 231.608 54.451 245.516 56.209 243.36 57.582 240.846 58.58 251.263 60.13 245.362 60.369 243.668 60.005 239.665 60.858 240.435 61.305 240.846 61.7 240.743 61.763 238.382 61.856 234.841 61.035 237.048 60.816 235.201 63.177 225.861 62.595 248.081 64.81 247.158 64.706 244.438 64.061 240.538 65.382 241.051 66.693 237.151 66.734 233.918 67.899 242.693 67.941 244.592 68.149 245.926 68.482 246.85 72.122 237.305 75.741 250.237 79.559 245.926 81.899 241.205 84.145 248.492 86.517 246.696 87.349 245.259 88.191 242.693 88.992 247.004 98.8 247.928 109.253 244.079 118.551 247.158 143.398 241.41 169.952 249.518 196.151 241.923 202.329 238.998 208.746 234.841 214.768 231.506 214.768 231.506 219.646 222.371 219.646 181.316S220.686 145.393 220.842 112.703C220.998 80.013 221.726 78.679 220.686 53.02Z" opacity="1" fill="#ff4057" data-fill-palette-color="tertiary"></path><g transform="matrix(1,0,0,1,55.76832,26.230666666666668)"><svg width="109.69894122287968" viewBox="1.22 -36.91 23.240000000000002 41.26" height="194.73866666666666" data-palette-color="#ffffff"><path d="M23.49-17.72L23-17.72 23-17.14 23.49-17.72ZM14.21 0.93L13.16 0.93Q13.16 0.98 13.22 1.09 13.28 1.2 13.18 1.42L13.18 1.42Q12.94 2.08 12.87 2.22L12.87 2.22 12.43 1.66 12.43 0.93 10.18 0.93Q10.18 1.34 10.4 2.15 10.62 2.95 10.62 3.37L10.62 3.37 9.77 2.12 9.77 1.54 9.35 1.54 8.84 1 8.84 1.54Q8.25 1.98 8.09 1.98 7.93 1.98 7.48 1.45 7.03 0.93 6.59 0.93L6.59 0.93Q4.74-0.93 4.69-1.88L4.69-1.88Q3.17-4.17 3.17-4.99 3.17-5.81 2.73-5.81L2.73-5.81 2.2-5.81Q3.37-7.79 6.69-7.79L6.69-7.79 10.62-7.54 11.08-8.06 11.04-7.79Q11.04-6.93 11.52-6.93L11.52-6.93 11.52-4.69 11.77-4.76Q12.43-4.76 12.43-4.1L12.43-4.1 12.87-4.1Q13.65-4.66 15.06-6.37L15.06-6.37 14.6-6.93 14.6-7.54 14.21-8.06 14.21-9.2 12.7-9.11Q11.62-9.01 11.08-9.74L11.08-9.74Q10.96-9.72 10.46-9.72 9.96-9.72 9.33-10.03 8.69-10.35 8.45-10.91L8.45-10.91 7.98-10.35Q5.37-11.74 4-13.09L4-13.09Q1.22-15.75 1.22-21.83L1.22-21.83 1.71-27.34 3.17-30.13Q3.17-31.32 3.93-32.36 4.69-33.4 5.82-34.07 6.96-34.74 8.31-35.29 9.67-35.84 10.83-36.13 11.99-36.43 12.82-36.63 13.65-36.84 13.7-36.91L13.7-36.91Q15.87-36.91 17.15-36.43 18.43-35.94 20.39-34.4L20.39-34.4 20.56-34.64Q21.17-33.91 22.52-32.64 23.88-31.37 24.46-30.69L24.46-30.69 24.46-30.13 23.97-30.13 23.49-17.72 23.97-17.72 23.97-17.14 23.49-16.5 22.9-16.89Q21.61-17.75 21.39-17.75 21.17-17.75 21.07-17.72L21.07-17.72 20.56-17.14 19.07-18.26 19.07-17.72 15.48-17.72Q14.48-17.72 14.48-19.02L14.48-19.02Q14.48-19.34 14.6-20.56L14.6-20.56 14.21-19.95 13.28-21.12 12.43-21.12Q12.35-21.12 11.95-20.85 11.55-20.58 11.52-20.56L11.52-20.56 11.52-19.95 11.08-19.36Q11.08-18.53 11.66-17.52 12.23-16.5 12.87-16.5L12.87-16.5 12.87-16.02 13.28-16.5Q15.43-16.5 17.87-15.06L17.87-15.06Q20.61-13.48 21.73-11.25L21.73-11.25Q22.36-10.01 22.36-9.11 22.36-8.2 22.17-7.24 21.97-6.27 21.68-6.27L21.68-6.27Q21.61-6.27 21.53-6.35L21.53-6.35 22-5.81Q22-5.2 21.39-4.32 20.78-3.44 20.17-2.5 19.56-1.56 19.56-0.76L19.56-0.76 18.58 0.93 18.65 1.71 18.12 1.71 18.12 2.12 17.26 2.61Q17.24 2.54 17.11 2.29L17.11 2.29Q16.8 1.61 16.8 1.54L16.8 1.54 18.12 1.54 16.8 0.44 15.06 1.54 15.06 2.12Q14.6 2.73 14.6 3.39L14.6 3.39 14.6 4.35 14.21 4.35 14.21 3.78Q14.21 2.2 14.6 1.54L14.6 1.54 14.6 0.81Q14.53 0.88 14.21 0.93L14.21 0.93Z" opacity="1" transform="matrix(1,0,0,1,0,0)" fill="#ffffff" class="undefined-text-0" data-fill-palette-color="quaternary" id="text-0"></path></svg></g></svg></g></svg></g></svg></g><g></g></svg></g><defs></defs></svg><rect width="221.2355812228797" height="247.2" fill="none" stroke="none" visibility="hidden"></rect></g></svg></g></svg>